<svg width="62" height="70" viewBox="0 0 62 70" fill="none" xmlns="http://www.w3.org/2000/svg">
<path d="M53.1292 41.6108C44.1292 50.8108 34.0292 57.3108 26.9292 68.3108C26.4292 69.0108 25.6292 69.1108 24.8292 68.8108C24.3292 69.3108 23.4292 69.4107 22.7292 68.7107C14.5292 59.4107 9.62917 48.6108 6.12917 37.1108C3.32917 27.9108 -2.47081 13.6107 3.32919 4.91075C7.12918 -0.889251 14.8292 -1.18924 20.9292 2.11076C27.7292 5.81076 30.3292 12.6107 31.6292 19.5107C34.3292 14.5107 38.3292 10.2108 44.6292 9.31077C51.9292 8.31077 58.3292 13.2107 60.4292 19.9107C62.9292 28.1107 58.5292 36.0108 53.1292 41.6108ZM55.7292 19.3108C52.6292 13.1108 45.0292 11.8108 39.8292 15.6108C35.7292 18.5108 33.9292 23.2107 32.3292 27.7107C31.7292 29.5107 28.6292 29.0108 28.4292 27.1108C27.5292 19.1108 26.4292 8.41077 17.4292 4.81077C14.1292 3.01077 11.6292 3.91077 9.62917 7.31077C5.52917 8.81077 4.02921 11.5108 5.22921 15.6108C5.42921 19.2108 6.42921 22.8108 7.22921 26.3108C10.5292 40.3108 15.3292 53.7107 23.8292 65.7107C30.1292 55.3107 38.9292 49.0107 47.8292 40.9108C53.6292 35.7108 59.8292 27.5108 55.7292 19.3108Z" fill="#1F1F1F"/>
</svg>
