<svg width="27" height="26" viewBox="0 0 27 26" fill="none" xmlns="http://www.w3.org/2000/svg">
<path fillRule="evenodd" clipRule="evenodd" d="M19.4982 18.4507C20.8549 17.4864 22.226 16.5119 23.5425 15.4295C25.8707 13.4877 27.7677 10.7483 26.6899 7.90487C25.7844 5.5816 23.0251 3.8825 19.8777 4.22925C17.1615 4.54134 15.4369 6.03237 14.2728 7.76616C13.7123 5.37354 12.5913 3.0156 9.65948 1.7326C7.02947 0.5883 3.70963 0.692323 2.07127 2.70351C-0.125241 5.35337 1.53695 9.50143 2.7919 12.6332C2.96568 13.0669 3.13165 13.4811 3.27848 13.8691C4.7875 17.8568 6.90015 21.6018 10.4356 24.8266C10.7374 25.0693 11.1254 25.0347 11.341 24.8613C11.6859 24.9653 12.0308 24.9307 12.2464 24.6879C14.2689 22.1677 16.8562 20.3287 19.4982 18.4507Z" fill="#F40000"/>
</svg>
